<?xml version="1.0" encoding="utf-8"?>
<!-- Generator: Adobe Illustrator 19.2.1, SVG Export Plug-In . SVG Version: 6.00 Build 0)  -->
<svg version="1.1" id="Ebene_1" xmlns="http://www.w3.org/2000/svg" xmlns:xlink="http://www.w3.org/1999/xlink" x="0px" y="0px"
	 viewBox="0 0 40.2 59.5" style="enable-background:new 0 0 40.2 59.5;" xml:space="preserve">
<style type="text/css">
	.st0{fill:#FCC43D;}
	.st1{fill:#EE7728;}
	.st2{fill:#F49A23;}
	.st3{fill:#91BF23;}
	.st4{opacity:0.3;fill:#B3B3B2;enable-background:new    ;}
</style>
<g>
	<polygon class="st0" points="40.2,26 20.2,34.2 0,25.9 20,19.1 	"/>
	<polygon class="st1" points="40.2,51.2 20.2,59.5 20.2,34.2 40.2,26 	"/>
	<polygon class="st2" points="0.2,51.2 20.2,59.5 20.2,34.2 0,25.9 	"/>
	<g>
		<path class="st3" d="M1.2,0c0,0,11.2,1.1,15.9,6c4.6,4.9,2.1,12.3,2.1,12.3S11.9,20.7,7,16C2.1,11.2,1.2,0,1.2,0z"/>
		<path class="st3" d="M32.9,6.7c0,0-0.7,7.1-3.8,10C26,19.6,21.3,18,21.3,18s-1.5-4.6,1.5-7.7C25.8,7.2,32.9,6.7,32.9,6.7z"/>
	</g>
	<polygon class="st4" points="0,25.9 8,29.1 28,21.8 20,19.1 	"/>
</g>
</svg>
