<?xml version="1.0" encoding="utf-8"?>
<!-- Generator: Adobe Illustrator 19.2.1, SVG Export Plug-In . SVG Version: 6.00 Build 0)  -->
<svg version="1.1" id="Ebene_1" xmlns="http://www.w3.org/2000/svg" xmlns:xlink="http://www.w3.org/1999/xlink" x="0px" y="0px"
	 viewBox="0 0 40.8 60" style="enable-background:new 0 0 40.8 60;" xml:space="preserve">
<style type="text/css">
	.st0{fill:#FCC43D;}
	.st1{fill:#EE7728;}
	.st2{fill:#F49A23;}
	.st3{fill:#91BF23;}
	.st4{opacity:0.3;fill:#B3B3B2;enable-background:new    ;}
</style>
<g>
	<polygon class="st0" points="40.8,26.2 20.8,34.5 0.6,26.2 20.6,19.4 	"/>
	<polygon class="st1" points="40.8,51.5 20.8,59.7 20.8,34.5 40.8,26.2 	"/>
	<polygon class="st2" points="0.8,51.5 20.8,59.7 20.8,34.5 0.6,26.2 	"/>
	<g>
		<path class="st3" d="M1.8,0.3c0,0,11.2,1.1,15.9,6c4.6,4.9,2.1,12.3,2.1,12.3S12.5,21,7.5,16.3C2.7,11.5,1.8,0.3,1.8,0.3z"/>
		<path class="st3" d="M33.5,7c0,0-0.7,7.1-3.8,10c-3.1,2.9-7.8,1.3-7.8,1.3s-1.5-4.6,1.5-7.7C26.3,7.5,33.5,7,33.5,7z"/>
	</g>
	<polygon class="st4" points="0.6,26.2 8.6,29.4 28.6,22 20.6,19.4 	"/>
</g>
</svg>
